<svg width="18" height="18" viewBox="0 0 18 18" fill="none" xmlns="http://www.w3.org/2000/svg"><path fill-rule="evenodd" clip-rule="evenodd" d="M0.75 0.75C0.75 0.335786 1.08579 0 1.5 0H16.5C16.9142 0 17.25 0.335786 17.25 0.75V3C17.25 3.19891 17.171 3.38968 17.0303 3.53033L11.25 9.31066V15C11.25 15.2841 11.0895 15.5438 10.8354 15.6708L7.83541 17.1708C7.60292 17.2871 7.32681 17.2746 7.1057 17.138C6.88459 17.0013 6.75 16.7599 6.75 16.5V9.31066L0.96967 3.53033C0.829018 3.38968 0.75 3.19891 0.75 3V0.75ZM2.25 1.5V2.68934L8.03033 8.46967C8.17098 8.61032 8.25 8.80109 8.25 9V15.2865L9.75 14.5365V9C9.75 8.80109 9.82902 8.61032 9.96967 8.46967L15.75 2.68934V1.5H2.25Z" fill="#808089"></path></svg>