<svg width="14" height="14" viewBox="0 0 14 14" fill="none" xmlns="http://www.w3.org/2000/svg"><path fill-rule="evenodd" clip-rule="evenodd" d="M3.43306 0.308058C3.67714 0.0639806 4.07286 0.0639806 4.31694 0.308058L6.81694 2.80806C7.06102 3.05214 7.06102 3.44786 6.81694 3.69194C6.57286 3.93602 6.17714 3.93602 5.93306 3.69194L4.5 2.25888V10.125C4.5 10.4702 4.22018 10.75 3.875 10.75C3.52982 10.75 3.25 10.4702 3.25 10.125V2.25888L1.81694 3.69194C1.57286 3.93602 1.17714 3.93602 0.933058 3.69194C0.688981 3.44786 0.688981 3.05214 0.933058 2.80806L3.43306 0.308058ZM9.5 11.7411V3.25C9.5 2.90482 9.77982 2.625 10.125 2.625C10.4702 2.625 10.75 2.90482 10.75 3.25V11.7411L12.1831 10.3081C12.4271 10.064 12.8229 10.064 13.0669 10.3081C13.311 10.5521 13.311 10.9479 13.0669 11.1919L10.5669 13.6919C10.3229 13.936 9.92714 13.936 9.68306 13.6919L7.18306 11.1919C6.93898 10.9479 6.93898 10.5521 7.18306 10.3081C7.42714 10.064 7.82286 10.064 8.06694 10.3081L9.5 11.7411Z" fill="#38383D"></path></svg>